<svg xmlns="http://www.w3.org/2000/svg" width="20" height="20" viewBox="0 0 20 20" fill="none">
  <path fill-rule="evenodd" clip-rule="evenodd" d="M9.69049 2.25178C6.51037 1.32038 3.17732 3.14333 2.24592 6.32344C1.31452 9.50356 3.13747 12.8366 6.31759 13.768C8.61229 14.4401 11.0304 13.5607 12.2983 12.2928L13.0054 11.5857L19.7126 18.2928C20.1031 18.6833 20.1031 19.3165 19.7126 19.707C19.3221 20.0976 18.6889 20.0976 18.2984 19.707L12.9524 14.3612C11.1448 15.707 8.41434 16.4661 5.75543 15.6874C1.51528 14.4455 -0.915317 10.0015 0.326552 5.76129C1.56842 1.52114 6.01248 -0.909457 10.2526 0.332411C14.1407 1.47117 16.0054 5.14246 16.0054 7.99996C16.0054 8.55224 15.5577 8.99996 15.0054 8.99996C14.4531 8.99996 14.0054 8.55224 14.0054 7.99996C14.0054 5.85745 12.571 3.09544 9.69049 2.25178Z" fill="black"/>
</svg>